<svg version="1.1" viewBox="0.0 0.0 960.0 720.0" fill="none" stroke="none" stroke-linecap="square" stroke-miterlimit="10" xmlns:xlink="http://www.w3.org/1999/xlink" xmlns="http://www.w3.org/2000/svg"><clipPath id="p.0"><path d="m0 0l960.0 0l0 720.0l-960.0 0l0 -720.0z" clip-rule="nonzero"/></clipPath><g clip-path="url(#p.0)"><path fill="#000000" fill-opacity="0.0" d="m0 0l960.0 0l0 720.0l-960.0 0z" fill-rule="evenodd"/><path fill="#000000" fill-opacity="0.0" d="m72.25722 176.77428l726.4567 0l0 381.92126l-726.4567 0z" fill-rule="evenodd"/><path fill="#0f8cd2" d="m251.54662 197.08678l9.70314 0q9.6875 0 13.125 0.75q3.4375 0.734375 5.59375 3.8125q2.171875 3.078125 2.171875 9.8125q0 6.15625 -1.53125 8.28125q-1.53125 2.109375 -6.015625 2.53125q4.0625 1.0 5.453125 2.703125q1.40625 1.6875 1.75 3.109375q0.34375 1.40625 0.34375 7.796875l0 13.890625l-12.71875 0l0 -17.515625q0 -4.21875 -0.671875 -5.234375q-0.671875 -1.015625 -3.5 -1.015625l0 23.765625l-13.70314 0l0 -52.6875zm13.70314 9.015625l0 11.703125q2.3125 0 3.234375 -0.625q0.9375 -0.640625 0.9375 -4.125l0 -2.890625q0 -2.5 -0.90625 -3.28125q-0.890625 -0.78125 -3.265625 -0.78125zm51.555573 15.65625l0 10.578125q0 5.8125 -0.59375 8.53125q-0.578125 2.71875 -2.5 5.078125q-1.921875 2.359375 -4.9375 3.484375q-3.0 1.125 -6.90625 1.125q-4.359375 0 -7.390625 -0.953125q-3.03125 -0.96875 -4.703125 -2.90625q-1.671875 -1.9375 -2.390625 -4.6875q-0.71875 -2.75 -0.71875 -8.25l0 -11.0625q0 -6.015625 1.296875 -9.40625q1.3125 -3.390625 4.6875 -5.4375q3.390625 -2.046875 8.65625 -2.046875q4.4375 0 7.609375 1.328125q3.171875 1.3125 4.890625 3.421875q1.734375 2.109375 2.359375 4.359375q0.640625 2.25 0.640625 6.84375zm-13.15625 -3.265625q0 -3.3125 -0.359375 -4.171875q-0.359375 -0.875 -1.53125 -0.875q-1.15625 0 -1.546875 0.875q-0.390625 0.859375 -0.390625 4.171875l0 19.5q0 3.0625 0.390625 3.984375q0.390625 0.921875 1.515625 0.921875q1.171875 0 1.546875 -0.84375q0.375 -0.84375 0.375 -3.640625l0 -19.921875zm30.639221 -21.40625l0 12.453125q1.625 -1.875 3.625 -2.796875q2.0 -0.9375 4.34375 -0.9375q2.703125 0 4.6875 0.84375q1.984375 0.84375 3.015625 2.375q1.046875 1.53125 1.25 3.0q0.21875 1.453125 0.21875 6.25l0 19.453125q0 4.75 -0.640625 7.078125q-0.625 2.328125 -2.96875 4.046875q-2.34375 1.703125 -5.5625 1.703125q-2.3125 0 -4.3125 -1.0q-2.0 -1.015625 -3.65625 -3.03125l-0.859375 3.25l-12.296875 0l0 -52.6875l13.15625 0zm4.0 21.765625q0 -3.34375 -0.421875 -4.375q-0.421875 -1.03125 -1.671875 -1.03125q-1.203125 0 -1.5625 0.90625q-0.34375 0.890625 -0.34375 4.5l0 18.625q0 3.484375 0.40625 4.453125q0.40625 0.96875 1.609375 0.96875q1.234375 0 1.609375 -1.0q0.375 -1.015625 0.375 -4.84375l0 -18.203125zm47.223755 2.90625l0 10.578125q0 5.8125 -0.59375 8.53125q-0.578125 2.71875 -2.5 5.078125q-1.921875 2.359375 -4.9375 3.484375q-3.0 1.125 -6.90625 1.125q-4.359375 0 -7.390625 -0.953125q-3.03125 -0.96875 -4.703125 -2.90625q-1.671875 -1.9375 -2.390625 -4.6875q-0.71875 -2.75 -0.71875 -8.25l0 -11.0625q0 -6.015625 1.296875 -9.40625q1.3125 -3.390625 4.6875 -5.4375q3.390625 -2.046875 8.65625 -2.046875q4.4375 0 7.609375 1.328125q3.171875 1.3125 4.890625 3.421875q1.734375 2.109375 2.359375 4.359375q0.640625 2.25 0.640625 6.84375zm-13.15625 -3.265625q0 -3.3125 -0.359375 -4.171875q-0.359375 -0.875 -1.53125 -0.875q-1.15625 0 -1.546875 0.875q-0.390625 0.859375 -0.390625 4.171875l0 19.5q0 3.0625 0.390625 3.984375q0.390625 0.921875 1.515625 0.921875q1.171875 0 1.546875 -0.84375q0.375 -0.84375 0.375 -3.640625l0 -19.921875zm29.623047 -21.40625l13.671875 0q6.46875 0 9.796875 1.015625q3.34375 1.0 5.390625 4.078125q2.0625 3.0625 2.0625 9.90625q0 4.625 -1.453125 6.453125q-1.453125 1.8125 -5.703125 2.78125q4.75 1.078125 6.4375 3.578125q1.6875 2.484375 1.6875 7.625l0 4.875q0 5.34375 -1.21875 7.921875q-1.21875 2.5625 -3.890625 3.515625q-2.671875 0.9375 -10.9375 0.9375l-15.84375 0l0 -52.6875zm13.703125 9.015625l0 11.703125q0.875 -0.03125 1.359375 -0.03125q2.03125 0 2.578125 -0.984375q0.546875 -1.0 0.546875 -5.6875q0 -2.46875 -0.453125 -3.453125q-0.453125 -1.0 -1.1875 -1.25q-0.734375 -0.265625 -2.84375 -0.296875zm0 19.90625l0 14.75q2.890625 -0.09375 3.6875 -0.90625q0.796875 -0.8125 0.796875 -4.015625l0 -4.90625q0 -3.390625 -0.71875 -4.09375q-0.703125 -0.71875 -3.765625 -0.828125zm52.49817 2.9375l-17.015625 0l0 9.34375q0 2.921875 0.421875 3.765625q0.421875 0.84375 1.625 0.84375q1.5 0 2.0 -1.109375q0.5 -1.125 0.5 -4.34375l0 -5.703125l12.46875 0l0 3.1875q0 4.0 -0.515625 6.15625q-0.5 2.140625 -2.359375 4.59375q-1.84375 2.4375 -4.703125 3.65625q-2.84375 1.21875 -7.140625 1.21875q-4.15625 0 -7.34375 -1.203125q-3.1875 -1.203125 -4.96875 -3.296875q-1.78125 -2.109375 -2.46875 -4.625q-0.671875 -2.53125 -0.671875 -7.34375l0 -12.59375q0 -5.671875 1.53125 -8.9375q1.53125 -3.265625 5.015625 -5.0q3.484375 -1.75 8.0 -1.75q5.53125 0 9.125 2.109375q3.609375 2.09375 5.046875 5.5625q1.453125 3.453125 1.453125 9.734375l0 5.734375zm-13.1875 -7.03125l0 -3.15625q0 -3.359375 -0.359375 -4.328125q-0.359375 -0.984375 -1.453125 -0.984375q-1.375 0 -1.703125 0.84375q-0.3125 0.828125 -0.3125 4.46875l0 3.15625l3.828125 0zm29.23294 1.40625l-12.34375 0l0 -2.90625q0 -5.015625 1.15625 -7.734375q1.15625 -2.71875 4.640625 -4.796875q3.484375 -2.078125 9.046875 -2.078125q6.671875 0 10.0625 2.359375q3.390625 2.359375 4.0625 5.796875q0.6875 3.421875 0.6875 14.140625l0 21.671875l-12.796875 0l0 -3.84375q-1.203125 2.3125 -3.109375 3.46875q-1.890625 1.15625 -4.53125 1.15625q-3.453125 0 -6.34375 -1.9375q-2.875 -1.9375 -2.875 -8.484375l0 -3.546875q0 -4.84375 1.53125 -6.59375q1.53125 -1.765625 7.59375 -4.109375q6.46875 -2.53125 6.921875 -3.40625q0.46875 -0.890625 0.46875 -3.59375q0 -3.375 -0.515625 -4.40625q-0.5 -1.03125 -1.671875 -1.03125q-1.328125 0 -1.65625 0.875q-0.328125 0.859375 -0.328125 4.46875l0 4.53125zm4.171875 5.921875q-3.15625 2.3125 -3.671875 3.875q-0.5 1.546875 -0.5 4.484375q0 3.359375 0.4375 4.328125q0.4375 0.96875 1.75 0.96875q1.234375 0 1.609375 -0.75q0.375 -0.765625 0.375 -4.03125l0 -8.875zm44.8385 -22.65625l-6.140625 43.1875l-17.15625 0l-6.609375 -43.1875l11.75 0l3.671875 31.5q0.421875 -3.453125 1.4375 -16.921875q0.578125 -7.515625 1.296875 -14.578125l11.75 0zm31.738953 22.359375l-17.015625 0l0 9.34375q0 2.921875 0.421875 3.765625q0.421875 0.84375 1.625 0.84375q1.5 0 2.0 -1.109375q0.5 -1.125 0.5 -4.34375l0 -5.703125l12.46875 0l0 3.1875q0 4.0 -0.515625 6.15625q-0.5 2.140625 -2.359375 4.59375q-1.84375 2.4375 -4.703125 3.65625q-2.84375 1.21875 -7.140625 1.21875q-4.15625 0 -7.34375 -1.203125q-3.1875 -1.203125 -4.96875 -3.296875q-1.78125 -2.109375 -2.46875 -4.625q-0.671875 -2.53125 -0.671875 -7.34375l0 -12.59375q0 -5.671875 1.53125 -8.9375q1.53125 -3.265625 5.015625 -5.0q3.484375 -1.75 8.0 -1.75q5.53125 0 9.125 2.109375q3.609375 2.09375 5.046875 5.5625q1.453125 3.453125 1.453125 9.734375l0 5.734375zm-13.1875 -7.03125l0 -3.15625q0 -3.359375 -0.359375 -4.328125q-0.359375 -0.984375 -1.453125 -0.984375q-1.375 0 -1.703125 0.84375q-0.3125 0.828125 -0.3125 4.46875l0 3.15625l3.828125 0zm30.639221 -15.328125l-0.53125 5.65625q2.859375 -6.078125 8.296875 -6.4375l0 15.203125q-3.609375 0 -5.296875 0.984375q-1.6875 0.96875 -2.078125 2.703125q-0.390625 1.734375 -0.390625 8.03125l0 17.046875l-13.15625 0l0 -43.1875l13.15625 0zm37.544434 13.796875l-11.640625 0l0 -2.34375q0 -3.0 -0.34375 -3.796875q-0.34375 -0.796875 -1.703125 -0.796875q-1.109375 0 -1.671875 0.734375q-0.546875 0.734375 -0.546875 2.203125q0 1.984375 0.265625 2.921875q0.28125 0.921875 1.65625 2.03125q1.390625 1.09375 5.6875 3.21875q5.734375 2.796875 7.515625 5.265625q1.796875 2.46875 1.796875 7.1875q0 5.28125 -1.375 7.96875q-1.359375 2.6875 -4.5625 4.140625q-3.203125 1.4375 -7.734375 1.4375q-5.015625 0 -8.578125 -1.5625q-3.5625 -1.5625 -4.90625 -4.234375q-1.328125 -2.671875 -1.328125 -8.0625l0 -2.09375l11.65625 0l0 2.734375q0 3.484375 0.4375 4.53125q0.4375 1.03125 1.75 1.03125q1.390625 0 1.9375 -0.6875q0.5625 -0.703125 0.5625 -2.953125q0 -3.09375 -0.71875 -3.875q-0.75 -0.78125 -7.640625 -4.609375q-5.796875 -3.265625 -7.078125 -5.90625q-1.265625 -2.65625 -1.265625 -6.3125q0 -5.171875 1.359375 -7.625q1.375 -2.453125 4.640625 -3.78125q3.28125 -1.34375 7.609375 -1.34375q4.296875 0 7.296875 1.09375q3.015625 1.078125 4.625 2.875q1.625 1.796875 1.953125 3.328125q0.34375 1.515625 0.34375 4.78125l0 2.5z" fill-rule="nonzero"/><path fill="#0f8cd2" d="m241.86388 277.0868l9.703125 0q9.687515 0 13.125015 0.75q3.4375 0.734375 5.59375 3.8125q2.171875 3.078125 2.171875 9.8125q0 6.15625 -1.53125 8.28125q-1.53125 2.109375 -6.015625 2.53125q4.0625 1.0 5.453125 2.703125q1.40625 1.6875 1.75 3.109375q0.34375 1.40625 0.34375 7.796875l0 13.890625l-12.71875 0l0 -17.515625q0 -4.21875 -0.671875 -5.234375q-0.671875 -1.015625 -3.5000153 -1.015625l0 23.765625l-13.703125 0l0 -52.6875zm13.703125 9.015625l0 11.703125q2.3125153 0 3.2343903 -0.625q0.9375 -0.640625 0.9375 -4.125l0 -2.890625q0 -2.5 -0.90625 -3.28125q-0.890625 -0.78125 -3.2656403 -0.78125zm51.555588 15.65625l0 10.578125q0 5.8125 -0.59375 8.53125q-0.578125 2.71875 -2.5 5.078125q-1.921875 2.359375 -4.9375 3.484375q-3.0 1.125 -6.90625 1.125q-4.359375 0 -7.390625 -0.953125q-3.03125 -0.96875 -4.703125 -2.90625q-1.671875 -1.9375 -2.390625 -4.6875q-0.71875 -2.75 -0.71875 -8.25l0 -11.0625q0 -6.015625 1.296875 -9.40625q1.3125 -3.390625 4.6875 -5.4375q3.390625 -2.046875 8.65625 -2.046875q4.4375 0 7.609375 1.328125q3.171875 1.3125 4.890625 3.421875q1.734375 2.109375 2.359375 4.359375q0.640625 2.25 0.640625 6.84375zm-13.15625 -3.265625q0 -3.3125 -0.359375 -4.171875q-0.359375 -0.875 -1.53125 -0.875q-1.15625 0 -1.546875 0.875q-0.390625 0.859375 -0.390625 4.171875l0 19.5q0 3.0625 0.390625 3.984375q0.390625 0.921875 1.515625 0.921875q1.171875 0 1.546875 -0.84375q0.375 -0.84375 0.375 -3.640625l0 -19.921875zm30.639221 -21.40625l0 12.453125q1.625 -1.875 3.625 -2.796875q2.0 -0.9375 4.34375 -0.9375q2.703125 0 4.6875 0.84375q1.984375 0.84375 3.015625 2.375q1.046875 1.53125 1.25 3.0q0.21875 1.453125 0.21875 6.25l0 19.453125q0 4.75 -0.640625 7.078125q-0.625 2.328125 -2.96875 4.046875q-2.34375 1.703125 -5.5625 1.703125q-2.3125 0 -4.3125 -1.0q-2.0 -1.015625 -3.65625 -3.03125l-0.859375 3.25l-12.296875 0l0 -52.6875l13.15625 0zm4.0 21.765625q0 -3.34375 -0.421875 -4.375q-0.421875 -1.03125 -1.671875 -1.03125q-1.203125 0 -1.5625 0.90625q-0.34375 0.890625 -0.34375 4.5l0 18.625q0 3.484375 0.40625 4.453125q0.40625 0.96875 1.609375 0.96875q1.234375 0 1.609375 -1.0q0.375 -1.015625 0.375 -4.84375l0 -18.203125zm47.223755 2.90625l0 10.578125q0 5.8125 -0.59375 8.53125q-0.578125 2.71875 -2.5 5.078125q-1.921875 2.359375 -4.9375 3.484375q-3.0 1.125 -6.90625 1.125q-4.359375 0 -7.390625 -0.953125q-3.03125 -0.96875 -4.703125 -2.90625q-1.671875 -1.9375 -2.390625 -4.6875q-0.71875 -2.75 -0.71875 -8.25l0 -11.0625q0 -6.015625 1.296875 -9.40625q1.3125 -3.390625 4.6875 -5.4375q3.390625 -2.046875 8.65625 -2.046875q4.4375 0 7.609375 1.328125q3.171875 1.3125 4.890625 3.421875q1.734375 2.109375 2.359375 4.359375q0.640625 2.25 0.640625 6.84375zm-13.15625 -3.265625q0 -3.3125 -0.359375 -4.171875q-0.359375 -0.875 -1.53125 -0.875q-1.15625 0 -1.546875 0.875q-0.390625 0.859375 -0.390625 4.171875l0 19.5q0 3.0625 0.390625 3.984375q0.390625 0.921875 1.515625 0.921875q1.171875 0 1.546875 -0.84375q0.375 -0.84375 0.375 -3.640625l0 -19.921875zm31.342346 -17.671875l0 6.8125l3.546875 0l0 6.828125l-3.546875 0l0 23.109375q0 4.265625 0.4375 4.75q0.453125 0.484375 3.671875 0.484375l0 6.96875l-5.3125 0q-4.484375 0 -6.40625 -0.375q-1.921875 -0.375 -3.390625 -1.71875q-1.453125 -1.359375 -1.8125 -3.09375q-0.359375 -1.75 -0.359375 -8.1875l0 -21.9375l-2.84375 0l0 -6.828125l2.84375 0l0 -6.8125l13.171875 0zm19.996826 -3.734375l0 6.859375l-13.546875 0l0 -6.859375l13.546875 0zm0 9.5l0 43.1875l-13.546875 0l0 -43.1875l13.546875 0zm33.774475 16.296875l-12.40625 0l0 -4.96875q0 -2.609375 -0.421875 -3.53125q-0.421875 -0.9375 -1.5625 -0.9375q-1.125 0 -1.515625 0.828125q-0.390625 0.8125 -0.390625 3.640625l0 20.375q0 2.3125 0.578125 3.46875q0.59375 1.140625 1.71875 1.140625q1.34375 0 1.8125 -1.203125q0.46875 -1.203125 0.46875 -4.546875l0 -5.140625l11.71875 0q-0.03125 5.171875 -0.375 7.765625q-0.34375 2.578125 -2.1875 5.296875q-1.828125 2.71875 -4.796875 4.109375q-2.953125 1.375 -7.3125 1.375q-5.578125 0 -8.828125 -1.90625q-3.25 -1.90625 -4.609375 -5.328125q-1.34375 -3.4375 -1.34375 -9.75l0 -12.28125q0 -5.5 1.109375 -8.296875q1.109375 -2.796875 4.71875 -4.984375q3.609375 -2.203125 8.78125 -2.203125q5.140625 0 8.78125 2.1875q3.65625 2.171875 4.859375 5.5q1.203125 3.3125 1.203125 9.390625zm30.751343 -2.5l-11.640625 0l0 -2.34375q0 -3.0 -0.34375 -3.796875q-0.34375 -0.796875 -1.703125 -0.796875q-1.109375 0 -1.671875 0.734375q-0.546875 0.734375 -0.546875 2.203125q0 1.984375 0.265625 2.921875q0.28125 0.921875 1.65625 2.03125q1.390625 1.09375 5.6875 3.21875q5.734375 2.796875 7.515625 5.265625q1.796875 2.46875 1.796875 7.1875q0 5.28125 -1.375 7.96875q-1.359375 2.6875 -4.5625 4.140625q-3.203125 1.4375 -7.734375 1.4375q-5.015625 0 -8.578125 -1.5625q-3.5625 -1.5625 -4.90625 -4.234375q-1.328125 -2.671875 -1.328125 -8.0625l0 -2.09375l11.65625 0l0 2.734375q0 3.484375 0.4375 4.53125q0.4375 1.03125 1.75 1.03125q1.390625 0 1.9375 -0.6875q0.5625 -0.703125 0.5625 -2.953125q0 -3.09375 -0.71875 -3.875q-0.75 -0.78125 -7.640625 -4.609375q-5.796875 -3.265625 -7.078125 -5.90625q-1.265625 -2.65625 -1.265625 -6.3125q0 -5.171875 1.359375 -7.625q1.375 -2.453125 4.640625 -3.78125q3.28125 -1.34375 7.609375 -1.34375q4.296875 0 7.296875 1.09375q3.015625 1.078125 4.625 2.875q1.625 1.796875 1.953125 3.328125q0.34375 1.515625 0.34375 4.78125l0 2.5zm30.140411 -19.5625l0 6.8125l3.546875 0l0 6.828125l-3.546875 0l0 23.109375q0 4.265625 0.4375 4.75q0.453125 0.484375 3.671875 0.484375l0 6.96875l-5.3125 0q-4.484375 0 -6.40625 -0.375q-1.921875 -0.375 -3.390625 -1.71875q-1.453125 -1.359375 -1.8125 -3.09375q-0.359375 -1.75 -0.359375 -8.1875l0 -21.9375l-2.84375 0l0 -6.828125l2.84375 0l0 -6.8125l13.171875 0zm36.2312 28.125l-17.015625 0l0 9.34375q0 2.921875 0.421875 3.765625q0.421875 0.84375 1.625 0.84375q1.5 0 2.0 -1.109375q0.5 -1.125 0.5 -4.34375l0 -5.703125l12.46875 0l0 3.1875q0 4.0 -0.515625 6.15625q-0.5 2.140625 -2.359375 4.59375q-1.84375 2.4375 -4.703125 3.65625q-2.84375 1.21875 -7.140625 1.21875q-4.15625 0 -7.34375 -1.203125q-3.1875 -1.203125 -4.96875 -3.296875q-1.78125 -2.109375 -2.46875 -4.625q-0.671875 -2.53125 -0.671875 -7.34375l0 -12.59375q0 -5.671875 1.53125 -8.9375q1.53125 -3.265625 5.015625 -5.0q3.484375 -1.75 8.0 -1.75q5.53125 0 9.125 2.109375q3.609375 2.09375 5.046875 5.5625q1.453125 3.453125 1.453125 9.734375l0 5.734375zm-13.1875 -7.03125l0 -3.15625q0 -3.359375 -0.359375 -4.328125q-0.359375 -0.984375 -1.453125 -0.984375q-1.375 0 -1.703125 0.84375q-0.3125 0.828125 -0.3125 4.46875l0 3.15625l3.828125 0zm29.232971 1.40625l-12.34375 0l0 -2.90625q0 -5.015625 1.15625 -7.734375q1.15625 -2.71875 4.640625 -4.796875q3.484375 -2.078125 9.046875 -2.078125q6.671875 0 10.0625 2.359375q3.390625 2.359375 4.0625 5.796875q0.6875 3.421875 0.6875 14.140625l0 21.671875l-12.796875 0l0 -3.84375q-1.203125 2.3125 -3.109375 3.46875q-1.890625 1.15625 -4.53125 1.15625q-3.453125 0 -6.34375 -1.9375q-2.875 -1.9375 -2.875 -8.484375l0 -3.546875q0 -4.84375 1.53125 -6.59375q1.53125 -1.765625 7.59375 -4.109375q6.46875 -2.53125 6.921875 -3.40625q0.46875 -0.890625 0.46875 -3.59375q0 -3.375 -0.515625 -4.40625q-0.5 -1.03125 -1.671875 -1.03125q-1.328125 0 -1.65625 0.875q-0.328125 0.859375 -0.328125 4.46875l0 4.53125zm4.171875 5.921875q-3.15625 2.3125 -3.671875 3.875q-0.5 1.546875 -0.5 4.484375q0 3.359375 0.4375 4.328125q0.4375 0.96875 1.75 0.96875q1.234375 0 1.609375 -0.75q0.375 -0.765625 0.375 -4.03125l0 -8.875zm30.65094 -22.65625l-0.21875 4.09375q1.515625 -2.4375 3.625 -3.65625q2.125 -1.21875 4.828125 -1.21875q5.28125 0 8.296875 4.875q1.65625 -2.4375 3.734375 -3.65625q2.09375 -1.21875 4.640625 -1.21875q3.34375 0 5.53125 1.625q2.203125 1.625 2.828125 3.984375q0.625 2.359375 0.625 7.671875l0 30.6875l-12.765625 0l0 -28.15625q0 -5.53125 -0.375 -6.84375q-0.375 -1.328125 -1.734375 -1.328125q-1.40625 0 -1.8125 1.3125q-0.40625 1.296875 -0.40625 6.859375l0 28.15625l-12.765625 0l0 -27.4375q0 -6.34375 -0.3125 -7.609375q-0.296875 -1.28125 -1.703125 -1.28125q-0.875 0 -1.5 0.671875q-0.609375 0.671875 -0.671875 1.640625q-0.0625 0.953125 -0.0625 4.078125l0 29.9375l-12.765564 0l0 -43.1875l12.984314 0z" fill-rule="nonzero"/></g></svg>